{"title":"A.Good.Marriage.Stephen.King.2014.1080p.WEB-DL.H264.AAC.Mp4.Rave","uid":11152910,"size":1569578263,"categoryP":"video","categoryS":"hd___movies","magnet":"?xt=urn:btih:8c956e2e263db15d9545cf37eead9d879f50e5ce&amp;dn=A.Good.Marriage.Stephen.King.2014.1080p.WEB-DL.H264.AAC.Mp4.Rave&amp;tr=udp%3A%2F%2Ftracker.openbittorrent.com%3A80&amp;tr=udp%3A%2F%2Fopen.demonii.com%3A1337&amp;tr=udp%3A%2F%2Ftracker.coppersurfer.tk%3A6969&amp;tr=udp%3A%2F%2Fexodus.desync.com%3A6969","seeders":0,"leechers":2,"uploader":"Raven1969","files":-1,"time":1412370155,"description":"A.Good.Marriage.Stephen.King.2014.1080p.WEB-DL.H264.AAC.Mp4.Raven.\n\n\n\n\n\nEnglish and Swedish subs included.\n\n\n\n\n\nScreen images:\n\n\n &lt;a href=&quot;\nhttp://i.imgur.com/XGaJMRX.png&quot; rel=&quot;nofollow&quot; target=&quot;_NEW&quot;&gt;\nhttp://i.imgur.com/XGaJMRX.png&lt;/a&gt;\n\n\n &lt;a href=&quot;\nhttp://i.imgur.com/krWtbym.png&quot; rel=&quot;nofollow&quot; target=&quot;_NEW&quot;&gt;\nhttp://i.imgur.com/krWtbym.png&lt;/a&gt;\n\n\n &lt;a href=&quot;\nhttp://i.imgur.com/LqB81Ys.png&quot; rel=&quot;nofollow&quot; target=&quot;_NEW&quot;&gt;\nhttp://i.imgur.com/LqB81Ys.png&lt;/a&gt;\n\n\n &lt;a href=&quot;\nhttp://i.imgur.com/mzDcOO8.png&quot; rel=&quot;nofollow&quot; target=&quot;_NEW&quot;&gt;\nhttp://i.imgur.com/mzDcOO8.png&lt;/a&gt;\n\n\n &lt;a href=&quot;\nhttp://i.imgur.com/s7mR3am.png&quot; rel=&quot;nofollow&quot; target=&quot;_NEW&quot;&gt;\nhttp://i.imgur.com/s7mR3am.png&lt;/a&gt;\n\n\n\nIMDB:\n\n\n\n &lt;a href=&quot;\nhttp://www.imdb.com/title/tt2180994&quot; rel=&quot;nofollow&quot; target=&quot;_NEW&quot;&gt;\nhttp://www.imdb.com/title/tt2180994&lt;/a&gt;\n\n\n\n\nIMDB Rating:  8.0\n\n\n\n\nStoryline:\n\nAfter 25 years of a good marriage, what will Darcy do once she discovers her husband's sinister secret?\n\n\n\nGeneral\nFormat                                   : MPEG-4\nFormat profile                           : Base Media\nCodec ID                                 : isom\nFile size                                : 1.46 GiB\nDuration                                 : 1h 45mn\nOverall bit rate mode                    : Variable\nOverall bit rate                         : 1 981 Kbps\nEncoded date                             : UTC 2014-10-03 18:00:39\nTagged date                              : UTC 2014-10-03 18:00:39\nWriting application                      : My MP4Box GUI 0.6.0.6 &lt;http://my-mp4box-gui.zymichost.com&gt;\n\n\n\nVideo\nID                                       : 1\nFormat                                   : AVC\nFormat/Info                              : Advanced Video Codec\nFormat profile                           : &lt;a class=&quot;__cf_email__&quot; href=&quot;/cdn-cgi/l/email-protection&quot; data-cfemail=&quot;672f0e000f272b534957&quot;&gt;[email&amp;#160;protected]&lt;/a&gt;&lt;script cf-hash='f9e31' type=&quot;text/javascript&quot;&gt;\n/* &lt;![CDATA[ */!function(){try{var t=&quot;currentScript&quot;in document?document.currentScript:function(){for(var t=document.getElementsByTagName(&quot;script&quot;),e=t.length;e--;)if(t[e].getAttribute(&quot;cf-hash&quot;))return t[e]}();if(t&amp;&amp;t.previousSibling){var e,r,n,i,c=t.previousSibling,a=c.getAttribute(&quot;data-cfemail&quot;);if(a){for(e=&quot;&quot;,r=parseInt(a.substr(0,2),16),n=2;a.length-n;n+=2)i=parseInt(a.substr(n,2),16)^r,e+=String.fromCharCode(i);e=document.createTextNode(e),c.parentNode.replaceChild(e,c)}}}catch(u){}}();/* ]]&gt; */&lt;/script&gt;\nFormat settings, CABAC                   : Yes\nFormat settings, ReFrames                : 6 frames\nCodec ID                                 : avc1\nCodec ID/Info                            : Advanced Video Coding\nDuration                                 : 1h 41mn\nBit rate                                 : 2 000 Kbps\nMaximum bit rate                         : 15.0 Mbps\nWidth                                    : 1 916 pixels\nHeight                                   : 794 pixels\nDisplay aspect ratio                     : 2.40:1\nFrame rate mode                          : Constant\nFrame rate                               : 23.976 fps\nColor space                              : YUV\nChroma subsampling                       : 4:2:0\nBit depth                                : 8 bits\nScan type                                : Progressive\nBits/(Pixel*Frame)                       : 0.055\nStream size                              : 1.39 GiB (95%)\nTitle                                    : A.Good.Marriage.Stephen.King.2014.1080p.WEB-DL.H264.AAC.Mp4.Raven.mp4\nWriting library                          : x264 core 128\nLanguage                                 : English\nEncoded date                             : UTC 2014-10-03 17:55:57\nTagged date                              : UTC 2014-10-03 18:01:29\n\nAudio\nID                                       : 3\nFormat                                   : AAC\nFormat/Info                              : Advanced Audio Codec\nFormat profile                           : LC\nCodec ID                                 : 40\nDuration                                 : 1h 41mn\nBit rate mode                            : Variable\nBit rate                                 : 93.4 Kbps\nMaximum bit rate                         : 99.8 Kbps\nChannel(s)                               : 2 channels\nChannel positions                        : Front: L R\nSampling rate                            : 48.0 KHz\nCompression mode                         : Lossy\nStream size                              : 67.8 MiB (5%)\nTitle                                    : Audio AAC LC 96kb.aac\nEncoded date                             : UTC 2014-10-03 18:00:49\nTagged date                              : UTC 2014-10-03 18:01:29\n\nMenu\nID                                       : 2\nCodec ID                                 : text\nDuration                                 : 1h 45mn\nTitle                                    : A.Good.Marriage.Stephen.King.2014.1080p.WEB-DL.H264.AAC.Mp4.Raven.mp4\nEncoded date                             : UTC 2014-10-03 17:57:22\nTagged date                              : UTC 2014-10-03 18:01:29\nBit rate mode                            : VBR\n\n\nPLEASE  SEED FOR AS LONG AS POSSIBLE TO KEEP THE TORRENT ALIVE :-)","torrent":{"xt":"urn:btih:8c956e2e263db15d9545cf37eead9d879f50e5ce","amp;dn":"A.Good.Marriage.Stephen.King.2014.1080p.WEB-DL.H264.AAC.Mp4.Rave","amp;tr":["udp%3A%2F%2Ftracker.openbittorrent.com%3A80","udp%3A%2F%2Fopen.demonii.com%3A1337","udp%3A%2F%2Ftracker.coppersurfer.tk%3A6969","udp%3A%2F%2Fexodus.desync.com%3A6969"],"infoHash":"8c956e2e263db15d9545cf37eead9d879f50e5ce","infoHashBuffer":{"type":"Buffer","data":[140,149,110,46,38,61,177,93,149,69,207,55,238,173,157,135,159,80,229,206]},"announce":[],"urlList":[]}}